<svg width="4309" height="768" viewBox="0 0 4309 768" fill="none" xmlns="http://www.w3.org/2000/svg">
<g clip-path="url(#clip0_1_11)">
<path d="M976.372 444.984L584.296 52.908C574.924 43.536 559.732 43.536 550.36 52.908L499.288 103.98C445.864 157.404 445.864 244.02 499.288 297.444L899.848 698.004C904.54 702.696 912.136 702.696 916.816 698.004L976.372 638.448C1029.8 585.024 1029.8 498.408 976.372 444.984Z" fill="white"/>
<path d="M617.44 662.904V552.132C617.44 538.872 606.7 528.132 593.44 528.132H387.928C354.796 528.132 327.928 555 327.928 588.132V710.904C327.928 717.528 333.304 722.904 339.928 722.904H557.44C590.572 722.904 617.44 696.048 617.44 662.904Z" fill="white"/>
<path d="M1075.53 179.532V68.76C1075.53 55.5 1064.79 44.76 1051.53 44.76H940.756C907.624 44.76 880.756 71.628 880.756 104.76V227.532C880.756 234.156 886.132 239.532 892.756 239.532H1015.53C1048.67 239.532 1075.53 212.676 1075.53 179.532Z" fill="white"/>
<path d="M36.472 586.44V69.132C36.472 55.872 47.212 45.132 60.472 45.132H132.7C208.252 45.132 269.5 106.38 269.5 181.932V711.24C269.5 717.864 264.124 723.24 257.5 723.24H173.272C97.72 723.24 36.472 661.992 36.472 586.44Z" fill="white"/>
<path d="M1541.2 328C1574.93 328 1600.23 337.35 1617.1 356.05C1633.97 374.75 1642.4 401.7 1642.4 436.9V625H1532.95V450.1C1532.95 437.633 1529.65 427.733 1523.05 420.4C1516.82 412.7 1507.83 408.85 1496.1 408.85C1482.53 408.85 1471.53 413.25 1463.1 422.05C1454.67 430.85 1450.45 441.667 1450.45 454.5V625H1341V334.6H1430.65L1437.8 378.6C1449.17 363.2 1464.02 350.917 1482.35 341.75C1501.05 332.583 1520.67 328 1541.2 328ZM1858 328C1911.16 328 1951.68 340.467 1979.55 365.4C2007.78 390.333 2021.9 428.467 2021.9 479.8V498.5H1804.1C1804.1 519.4 1808.68 535.167 1817.85 545.8C1827.38 556.433 1842.23 561.75 1862.4 561.75C1880.73 561.75 1894.11 557.9 1902.55 550.2C1911.35 542.5 1915.75 532.233 1915.75 519.4H2021.9C2021.9 554.6 2008.51 582.1 1981.75 601.9C1954.98 621.7 1915.93 631.6 1864.6 631.6C1810.7 631.6 1768.9 619.133 1739.2 594.2C1709.5 568.9 1694.65 530.767 1694.65 479.8C1694.65 429.933 1709.13 392.167 1738.1 366.5C1767.06 340.833 1807.03 328 1858 328ZM1862.4 397.85C1827.93 397.85 1808.68 414.167 1804.65 446.8H1911.35C1911.35 431.767 1906.95 419.85 1898.15 411.05C1889.71 402.25 1877.8 397.85 1862.4 397.85ZM2391.29 625H2263.69L2208.69 533.7H2206.49L2150.94 625H2029.39L2141.04 471L2040.39 334.6H2169.09L2215.29 411.6H2217.49L2263.69 334.6H2384.69L2282.39 473.75L2391.29 625ZM2620.64 334.6V408.85H2559.04V519.4C2559.04 532.6 2561.24 542.317 2565.64 548.55C2570.04 554.417 2578.1 557.35 2589.84 557.35H2620.64V621.7C2611.84 624.633 2600.47 627.017 2586.54 628.85C2572.6 630.683 2560.5 631.6 2550.24 631.6C2517.97 631.6 2493.04 625.733 2475.44 614C2458.2 602.267 2449.59 582.283 2449.59 554.05V408.85H2408.89V334.6H2453.99L2477.64 246.6H2559.04V334.6H2620.64ZM2821.57 328C2869.24 328 2907.74 338.267 2937.07 358.8C2966.77 378.967 2981.62 409.95 2981.62 451.75H2875.47C2875.47 418.75 2857.5 402.25 2821.57 402.25C2785.64 402.25 2767.67 422.967 2767.67 464.4V495.75C2767.67 536.817 2786.37 557.35 2823.77 557.35C2861.17 557.35 2879.87 540.483 2879.87 506.75H2981.62C2981.62 548.917 2966.77 580.267 2937.07 600.8C2907.74 621.333 2869.24 631.6 2821.57 631.6C2770.6 631.6 2730.64 618.767 2701.67 593.1C2672.7 567.433 2658.22 529.667 2658.22 479.8C2658.22 429.933 2672.7 392.167 2701.67 366.5C2730.64 340.833 2770.6 328 2821.57 328ZM3027.61 625V226.25H3137.06V625H3027.61ZM3357.07 328C3408.03 328 3448 341.017 3476.97 367.05C3506.3 392.717 3520.97 430.3 3520.97 479.8C3520.97 529.3 3506.3 567.067 3476.97 593.1C3448 618.767 3408.03 631.6 3357.07 631.6C3306.1 631.6 3266.13 618.767 3237.17 593.1C3208.2 567.433 3193.72 529.667 3193.72 479.8C3193.72 429.933 3208.2 392.167 3237.17 366.5C3266.13 340.833 3306.1 328 3357.07 328ZM3357.07 402.25C3321.13 402.25 3303.17 422.967 3303.17 464.4V495.75C3303.17 536.817 3321.13 557.35 3357.07 557.35C3393.37 557.35 3411.52 536.817 3411.52 495.75V464.4C3411.52 422.967 3393.37 402.25 3357.07 402.25ZM3784.41 625L3777.26 581C3765.9 596.767 3750.86 609.233 3732.16 618.4C3713.83 627.2 3694.4 631.6 3673.86 631.6C3640.13 631.6 3614.83 622.25 3597.96 603.55C3581.1 584.85 3572.66 557.9 3572.66 522.7V334.6H3682.11V509.5C3682.11 521.967 3685.23 532.05 3691.46 539.75C3698.06 547.083 3707.23 550.75 3718.96 550.75C3732.53 550.75 3743.53 546.35 3751.96 537.55C3760.4 528.75 3764.61 517.933 3764.61 505.1V334.6H3874.06V625H3784.41ZM4151.81 625L4142.46 583.75C4121.19 615.65 4090.39 631.6 4050.06 631.6C4010.83 631.6 3980.58 618.767 3959.31 593.1C3938.04 567.433 3927.41 529.483 3927.41 479.25C3927.41 429.383 3938.04 391.8 3959.31 366.5C3980.58 340.833 4010.83 328 4050.06 328C4083.43 328 4110.56 339.183 4131.46 361.55V226.25H4240.91V625H4151.81ZM4084.16 408.85C4052.63 408.85 4036.86 427.733 4036.86 465.5V494.65C4036.86 532.05 4052.63 550.75 4084.16 550.75C4100.29 550.75 4112.39 545.067 4120.46 533.7C4128.53 522.333 4132.56 507.483 4132.56 489.15V471C4132.56 452.667 4128.53 437.817 4120.46 426.45C4112.39 414.717 4100.29 408.85 4084.16 408.85Z" fill="white"/>
</g>
<defs>
<clipPath id="clip0_1_11">
<rect width="4309" height="768" fill="white"/>
</clipPath>
</defs>
</svg>
