<svg width="3321" height="1219" viewBox="0 0 3321 1219" fill="none" xmlns="http://www.w3.org/2000/svg">
<g clip-path="url(#clip0_1_10)">
<path d="M1049.31 659.82L722.58 333.09C714.77 325.28 702.11 325.28 694.3 333.09L651.74 375.65C607.22 420.17 607.22 492.35 651.74 536.87L985.54 870.67C989.45 874.58 995.78 874.58 999.68 870.67L1049.31 821.04C1093.83 776.52 1093.83 704.34 1049.31 659.82Z" fill="white"/>
<path d="M750.2 841.42V749.11C750.2 738.06 741.25 729.11 730.2 729.11H558.94C531.33 729.11 508.94 751.5 508.94 779.11V881.42C508.94 886.94 513.42 891.42 518.94 891.42H700.2C727.81 891.42 750.2 869.04 750.2 841.42Z" fill="white"/>
<path d="M1131.94 438.61V346.3C1131.94 335.25 1122.99 326.3 1111.94 326.3H1019.63C992.02 326.3 969.63 348.69 969.63 376.3V478.61C969.63 484.13 974.11 488.61 979.63 488.61H1081.94C1109.56 488.61 1131.94 466.23 1131.94 438.61Z" fill="white"/>
<path d="M266.06 777.7V346.61C266.06 335.56 275.01 326.61 286.06 326.61H346.25C409.21 326.61 460.25 377.65 460.25 440.61V881.7C460.25 887.22 455.77 891.7 450.25 891.7H380.06C317.1 891.7 266.06 840.66 266.06 777.7Z" fill="white"/>
<path d="M1445.19 519.18C1465.62 519.18 1480.93 524.841 1491.15 536.163C1501.36 547.485 1506.46 563.802 1506.46 585.114V699H1440.2V593.106C1440.2 585.558 1438.2 579.564 1434.2 575.124C1430.43 570.462 1424.99 568.131 1417.89 568.131C1409.67 568.131 1403.01 570.795 1397.91 576.123C1392.8 581.451 1390.25 588 1390.25 595.77V699H1323.98V523.176H1378.26L1382.59 549.816C1389.47 540.492 1398.46 533.055 1409.56 527.505C1420.88 521.955 1432.76 519.18 1445.19 519.18ZM1637 519.18C1669.19 519.18 1693.72 526.728 1710.59 541.824C1727.68 556.92 1736.23 580.008 1736.23 611.088V622.41H1604.36C1604.36 635.064 1607.14 644.61 1612.69 651.048C1618.46 657.486 1627.45 660.705 1639.66 660.705C1650.76 660.705 1658.86 658.374 1663.97 653.712C1669.3 649.05 1671.96 642.834 1671.96 635.064H1736.23C1736.23 656.376 1728.13 673.026 1711.92 685.014C1695.72 697.002 1672.07 702.996 1640.99 702.996C1608.36 702.996 1583.05 695.448 1565.07 680.352C1547.09 665.034 1538.1 641.946 1538.1 611.088C1538.1 580.896 1546.87 558.03 1564.4 542.49C1581.94 526.95 1606.14 519.18 1637 519.18ZM1639.66 561.471C1618.79 561.471 1607.14 571.35 1604.7 591.108H1669.3C1669.3 582.006 1666.63 574.791 1661.31 569.463C1656.2 564.135 1648.99 561.471 1639.66 561.471ZM1959.88 699H1882.63L1849.33 643.722H1847.99L1814.36 699H1740.77L1808.37 605.76L1747.43 523.176H1825.35L1853.32 569.796H1854.65L1882.63 523.176H1955.89L1893.95 607.425L1959.88 699ZM2098.74 523.176V568.131H2061.44V635.064C2061.44 643.056 2062.78 648.939 2065.44 652.713C2068.1 656.265 2072.99 658.041 2080.09 658.041H2098.74V697.002C2093.41 698.778 2086.53 700.221 2078.09 701.331C2069.66 702.441 2062.33 702.996 2056.12 702.996C2036.58 702.996 2021.48 699.444 2010.83 692.34C2000.39 685.236 1995.18 673.137 1995.18 656.043V568.131H1970.54V523.176H1997.84L2012.16 469.896H2061.44V523.176H2098.74ZM2220.4 519.18C2249.26 519.18 2272.57 525.396 2290.33 537.828C2308.31 550.038 2317.3 568.797 2317.3 594.105H2253.03C2253.03 574.125 2242.15 564.135 2220.4 564.135C2198.64 564.135 2187.76 576.678 2187.76 601.764V620.745C2187.76 645.609 2199.09 658.041 2221.73 658.041C2244.37 658.041 2255.7 647.829 2255.7 627.405H2317.3C2317.3 652.935 2308.31 671.916 2290.33 684.348C2272.57 696.78 2249.26 702.996 2220.4 702.996C2189.54 702.996 2165.34 695.226 2147.8 679.686C2130.27 664.146 2121.5 641.28 2121.5 611.088C2121.5 580.896 2130.27 558.03 2147.8 542.49C2165.34 526.95 2189.54 519.18 2220.4 519.18ZM2345.15 699V457.575H2411.41V699H2345.15ZM2544.62 519.18C2575.48 519.18 2599.67 527.061 2617.21 542.823C2634.97 558.363 2643.85 581.118 2643.85 611.088C2643.85 641.058 2634.97 663.924 2617.21 679.686C2599.67 695.226 2575.48 702.996 2544.62 702.996C2513.76 702.996 2489.56 695.226 2472.02 679.686C2454.49 664.146 2445.72 641.28 2445.72 611.088C2445.72 580.896 2454.49 558.03 2472.02 542.49C2489.56 526.95 2513.76 519.18 2544.62 519.18ZM2544.62 564.135C2522.86 564.135 2511.98 576.678 2511.98 601.764V620.745C2511.98 645.609 2522.86 658.041 2544.62 658.041C2566.6 658.041 2577.58 645.609 2577.58 620.745V601.764C2577.58 576.678 2566.6 564.135 2544.62 564.135ZM2803.36 699L2799.03 672.36C2792.14 681.906 2783.04 689.454 2771.72 695.004C2760.62 700.332 2748.85 702.996 2736.42 702.996C2716 702.996 2700.68 697.335 2690.47 686.013C2680.26 674.691 2675.15 658.374 2675.15 637.062V523.176H2741.42V629.07C2741.42 636.618 2743.3 642.723 2747.08 647.385C2751.07 651.825 2756.62 654.045 2763.73 654.045C2771.94 654.045 2778.6 651.381 2783.71 646.053C2788.81 640.725 2791.37 634.176 2791.37 626.406V523.176H2857.63V699H2803.36ZM3025.8 699L3020.14 674.025C3007.26 693.339 2988.61 702.996 2964.19 702.996C2940.44 702.996 2922.12 695.226 2909.25 679.686C2896.37 664.146 2889.93 641.169 2889.93 610.755C2889.93 580.563 2896.37 557.808 2909.25 542.49C2922.12 526.95 2940.44 519.18 2964.19 519.18C2984.39 519.18 3000.82 525.951 3013.48 539.493V457.575H3079.74V699H3025.8ZM2984.84 568.131C2965.75 568.131 2956.2 579.564 2956.2 602.43V620.079C2956.2 642.723 2965.75 654.045 2984.84 654.045C2994.61 654.045 3001.93 650.604 3006.82 643.722C3011.7 636.84 3014.14 627.849 3014.14 616.749V605.76C3014.14 594.66 3011.7 585.669 3006.82 578.787C3001.93 571.683 2994.61 568.131 2984.84 568.131Z" fill="white"/>
</g>
<defs>
<clipPath id="clip0_1_10">
<rect width="3321" height="1219" fill="white"/>
</clipPath>
</defs>
</svg>
