<svg width="3064" height="768" viewBox="0 0 3064 768" fill="none" xmlns="http://www.w3.org/2000/svg">
<g clip-path="url(#clip0_1_10)">
<path d="M976.372 444.984L584.296 52.908C574.924 43.536 559.732 43.536 550.36 52.908L499.288 103.98C445.864 157.404 445.864 244.02 499.288 297.444L899.848 698.004C904.54 702.696 912.136 702.696 916.816 698.004L976.372 638.448C1029.8 585.024 1029.8 498.408 976.372 444.984Z" fill="white"/>
<path d="M617.44 662.904V552.132C617.44 538.872 606.7 528.132 593.44 528.132H387.928C354.796 528.132 327.928 555 327.928 588.132V710.904C327.928 717.528 333.304 722.904 339.928 722.904H557.44C590.572 722.904 617.44 696.048 617.44 662.904Z" fill="white"/>
<path d="M1075.53 179.532V68.76C1075.53 55.5 1064.79 44.76 1051.53 44.76H940.756C907.624 44.76 880.756 71.628 880.756 104.76V227.532C880.756 234.156 886.132 239.532 892.756 239.532H1015.53C1048.67 239.532 1075.53 212.676 1075.53 179.532Z" fill="white"/>
<path d="M36.472 586.44V69.132C36.472 55.872 47.212 45.132 60.472 45.132H132.7C208.252 45.132 269.5 106.38 269.5 181.932V711.24C269.5 717.864 264.124 723.24 257.5 723.24H173.272C97.72 723.24 36.472 661.992 36.472 586.44Z" fill="white"/>
<path d="M1667.7 280.15C1667.7 302.517 1662.02 319.75 1650.65 331.85C1639.65 343.95 1622.97 352.933 1600.6 358.8C1611.23 366.867 1619.48 376.4 1625.35 387.4C1631.58 398.033 1634.7 409.4 1634.7 421.5C1634.7 452.3 1622.97 475.583 1599.5 491.35C1576.4 507.117 1547.43 515 1512.6 515H1470.8C1447.7 515 1436.15 520.317 1436.15 530.95C1436.15 536.083 1438.72 540.3 1443.85 543.6C1448.98 546.533 1457.97 548 1470.8 548H1569.8C1602.07 548 1626.45 556.433 1642.95 573.3C1659.45 590.167 1667.7 612.717 1667.7 640.95C1667.7 661.85 1662.2 679.817 1651.2 694.85C1640.2 709.883 1625.35 721.25 1606.65 728.95C1587.95 736.65 1567.6 740.5 1545.6 740.5H1383.9C1370.7 740.5 1358.42 737.383 1347.05 731.15C1336.05 724.917 1327.25 716.3 1320.65 705.3C1314.05 694.667 1310.75 682.75 1310.75 669.55C1310.75 655.25 1315.15 642.233 1323.95 630.5C1332.75 619.133 1343.75 610.517 1356.95 604.65C1348.15 598.417 1341.18 590.9 1336.05 582.1C1330.92 573.3 1328.35 563.767 1328.35 553.5C1328.35 539.2 1333.67 526.367 1344.3 515C1354.93 503.267 1368.13 495.383 1383.9 491.35C1369.6 482.183 1358.23 471.733 1349.8 460C1341.37 447.9 1337.15 435.25 1337.15 422.05C1337.15 388.317 1350.72 364.3 1377.85 350C1405.35 335.333 1441.65 328 1486.75 328C1506.55 328 1522.5 329.1 1534.6 331.3C1552.57 319.933 1564.12 309.667 1569.25 300.5C1574.75 290.967 1577.5 284.183 1577.5 280.15H1667.7ZM1485.65 385.2C1473.55 385.2 1463.65 388.317 1455.95 394.55C1448.25 400.783 1444.4 409.767 1444.4 421.5C1444.4 433.6 1447.88 442.767 1454.85 449C1462.18 454.867 1472.45 457.8 1485.65 457.8C1498.85 457.8 1509.12 454.867 1516.45 449C1524.15 442.767 1528 433.6 1528 421.5C1528 409.4 1524.15 400.417 1516.45 394.55C1509.12 388.317 1498.85 385.2 1485.65 385.2ZM1443.3 625C1434.87 625 1427.9 627.2 1422.4 631.6C1417.27 636.367 1414.7 642.967 1414.7 651.4C1414.7 659.833 1417.45 666.617 1422.95 671.75C1428.45 676.883 1435.23 679.45 1443.3 679.45H1529.1C1537.17 679.45 1543.95 676.883 1549.45 671.75C1555.32 666.983 1558.25 660.383 1558.25 651.95C1558.25 643.517 1555.5 636.917 1550 632.15C1544.5 627.383 1537.53 625 1529.1 625H1443.3ZM1711.7 300.5V226.25H1821.15V300.5H1711.7ZM1711.7 625V334.6H1821.15V625H1711.7ZM2084.6 334.6V408.85H2023V519.4C2023 532.6 2025.2 542.317 2029.6 548.55C2034 554.417 2042.07 557.35 2053.8 557.35H2084.6V621.7C2075.8 624.633 2064.43 627.017 2050.5 628.85C2036.57 630.683 2024.47 631.6 2014.2 631.6C1981.93 631.6 1957 625.733 1939.4 614C1922.17 602.267 1913.55 582.283 1913.55 554.05V408.85H1872.85V334.6H1917.95L1941.6 246.6H2023V334.6H2084.6ZM2139.23 625V226.25H2248.68V625H2139.23ZM2462.09 328C2506.46 328 2542.57 335.517 2570.44 350.55C2598.31 365.217 2612.24 389.233 2612.24 422.6V535.9C2612.24 542.133 2613.71 547.267 2616.64 551.3C2619.57 555.333 2623.97 557.35 2629.84 557.35H2649.64V620.6C2648.54 621.333 2645.61 622.617 2640.84 624.45C2636.44 625.917 2630.02 627.383 2621.59 628.85C2613.16 630.683 2603.44 631.6 2592.44 631.6C2571.17 631.6 2553.57 628.483 2539.64 622.25C2526.07 615.65 2516.72 606.667 2511.59 595.3C2497.66 606.3 2482.07 615.1 2464.84 621.7C2447.61 628.3 2427.44 631.6 2404.34 631.6C2336.14 631.6 2302.04 604.467 2302.04 550.2C2302.04 521.967 2309.56 500.517 2324.59 485.85C2339.99 470.817 2361.99 460.55 2390.59 455.05C2419.19 449.55 2456.59 446.8 2502.79 446.8V432.5C2502.79 421.133 2498.76 412.517 2490.69 406.65C2482.99 400.783 2472.91 397.85 2460.44 397.85C2449.07 397.85 2439.17 399.867 2430.74 403.9C2422.67 407.933 2418.64 414.35 2418.64 423.15V425.35H2310.84C2310.47 423.517 2310.29 420.95 2310.29 417.65C2310.29 390.15 2323.31 368.333 2349.34 352.2C2375.74 336.067 2413.32 328 2462.09 328ZM2502.79 498.5C2471.62 498.5 2448.52 501.983 2433.49 508.95C2418.82 515.55 2411.49 524.533 2411.49 535.9C2411.49 554.233 2423.96 563.4 2448.89 563.4C2463.19 563.4 2475.66 559.55 2486.29 551.85C2497.29 544.15 2502.79 534.617 2502.79 523.25V498.5ZM2800.76 361.55C2821.66 339.183 2848.79 328 2882.16 328C2921.39 328 2951.64 340.833 2972.91 366.5C2994.17 391.8 3004.81 429.383 3004.81 479.25C3004.81 529.483 2994.17 567.433 2972.91 593.1C2951.64 618.767 2921.39 631.6 2882.16 631.6C2841.82 631.6 2811.02 615.65 2789.76 583.75L2780.41 625H2691.31V226.25H2800.76V361.55ZM2848.06 408.85C2831.92 408.85 2819.82 414.717 2811.76 426.45C2803.69 437.817 2799.66 452.667 2799.66 471V489.15C2799.66 507.483 2803.69 522.333 2811.76 533.7C2819.82 545.067 2831.92 550.75 2848.06 550.75C2879.59 550.75 2895.36 532.05 2895.36 494.65V465.5C2895.36 427.733 2879.59 408.85 2848.06 408.85Z" fill="white"/>
</g>
<rect x="0.5" y="0.5" width="3063" height="767" stroke="white"/>
<defs>
<clipPath id="clip0_1_10">
<rect width="3064" height="768" fill="white"/>
</clipPath>
</defs>
</svg>
