<svg width="3321" height="1219" viewBox="0 0 3321 1219" fill="none" xmlns="http://www.w3.org/2000/svg">
<g clip-path="url(#clip0_1_10)">
<path d="M1049.31 659.82L722.58 333.09C714.77 325.28 702.11 325.28 694.3 333.09L651.74 375.65C607.22 420.17 607.22 492.35 651.74 536.87L985.54 870.67C989.45 874.58 995.78 874.58 999.68 870.67L1049.31 821.04C1093.83 776.52 1093.83 704.34 1049.31 659.82Z" fill="white"/>
<path d="M750.2 841.42V749.11C750.2 738.06 741.25 729.11 730.2 729.11H558.94C531.33 729.11 508.94 751.5 508.94 779.11V881.42C508.94 886.94 513.42 891.42 518.94 891.42H700.2C727.81 891.42 750.2 869.04 750.2 841.42Z" fill="white"/>
<path d="M1131.94 438.61V346.3C1131.94 335.25 1122.99 326.3 1111.94 326.3H1019.63C992.02 326.3 969.63 348.69 969.63 376.3V478.61C969.63 484.13 974.11 488.61 979.63 488.61H1081.94C1109.56 488.61 1131.94 466.23 1131.94 438.61Z" fill="white"/>
<path d="M266.06 777.7V346.61C266.06 335.56 275.01 326.61 286.06 326.61H346.25C409.21 326.61 460.25 377.65 460.25 440.61V881.7C460.25 887.22 455.77 891.7 450.25 891.7H380.06C317.1 891.7 266.06 840.66 266.06 777.7Z" fill="white"/>
<path d="M1410.89 519.18C1437.76 519.18 1459.62 523.731 1476.49 532.833C1493.37 541.713 1501.8 556.254 1501.8 576.456V645.054C1501.8 648.828 1502.69 651.936 1504.47 654.378C1506.24 656.82 1508.91 658.041 1512.46 658.041H1524.45V696.336C1523.78 696.78 1522 697.557 1519.12 698.667C1516.45 699.555 1512.57 700.443 1507.46 701.331C1502.36 702.441 1496.47 702.996 1489.81 702.996C1476.94 702.996 1466.28 701.109 1457.85 697.335C1449.63 693.339 1443.97 687.9 1440.86 681.018C1432.43 687.678 1422.99 693.006 1412.56 697.002C1402.12 700.998 1389.91 702.996 1375.93 702.996C1334.64 702.996 1313.99 686.568 1313.99 653.712C1313.99 636.618 1318.54 623.631 1327.64 614.751C1336.97 605.649 1350.29 599.433 1367.6 596.103C1384.92 592.773 1407.56 591.108 1435.54 591.108V582.45C1435.54 575.568 1433.09 570.351 1428.21 566.799C1423.55 563.247 1417.44 561.471 1409.89 561.471C1403.01 561.471 1397.02 562.692 1391.91 565.134C1387.03 567.576 1384.59 571.461 1384.59 576.789V578.121H1319.32C1319.1 577.011 1318.99 575.457 1318.99 573.459C1318.99 556.809 1326.87 543.6 1342.63 533.832C1358.61 524.064 1381.37 519.18 1410.89 519.18ZM1435.54 622.41C1416.67 622.41 1402.68 624.519 1393.58 628.737C1384.7 632.733 1380.26 638.172 1380.26 645.054C1380.26 656.154 1387.81 661.704 1402.9 661.704C1411.56 661.704 1419.11 659.373 1425.55 654.711C1432.21 650.049 1435.54 644.277 1435.54 637.395V622.41ZM1673.63 699L1669.3 672.36C1662.42 681.906 1653.31 689.454 1641.99 695.004C1630.89 700.332 1619.13 702.996 1606.69 702.996C1586.27 702.996 1570.95 697.335 1560.74 686.013C1550.53 674.691 1545.42 658.374 1545.42 637.062V523.176H1611.69V629.07C1611.69 636.618 1613.58 642.723 1617.35 647.385C1621.35 651.825 1626.9 654.045 1634 654.045C1642.21 654.045 1648.87 651.381 1653.98 646.053C1659.09 640.725 1661.64 634.176 1661.64 626.406V523.176H1727.91V699H1673.63ZM1885.41 523.176V568.131H1848.12V635.064C1848.12 643.056 1849.45 648.939 1852.11 652.713C1854.78 656.265 1859.66 658.041 1866.76 658.041H1885.41V697.002C1880.08 698.778 1873.2 700.221 1864.77 701.331C1856.33 702.441 1849 702.996 1842.79 702.996C1823.25 702.996 1808.16 699.444 1797.5 692.34C1787.07 685.236 1781.85 673.137 1781.85 656.043V568.131H1757.21V523.176H1784.51L1798.83 469.896H1848.12V523.176H1885.41ZM1982.43 541.491C1989.53 534.387 1997.86 528.948 2007.4 525.174C2016.95 521.178 2026.94 519.18 2037.37 519.18C2057.8 519.18 2073.11 524.841 2083.33 536.163C2093.54 547.485 2098.64 563.802 2098.64 585.114V699H2032.38V593.106C2032.38 585.558 2030.38 579.564 2026.38 575.124C2022.61 570.462 2017.17 568.131 2010.07 568.131C2001.85 568.131 1995.19 570.795 1990.09 576.123C1984.98 581.451 1982.43 588 1982.43 595.77V699H1916.16V457.575H1982.43V541.491ZM2229.18 519.18C2261.37 519.18 2285.9 526.728 2302.77 541.824C2319.87 556.92 2328.41 580.008 2328.41 611.088V622.41H2196.54C2196.54 635.064 2199.32 644.61 2204.87 651.048C2210.64 657.486 2219.63 660.705 2231.84 660.705C2242.94 660.705 2251.05 658.374 2256.15 653.712C2261.48 649.05 2264.14 642.834 2264.14 635.064H2328.41C2328.41 656.376 2320.31 673.026 2304.1 685.014C2287.9 697.002 2264.25 702.996 2233.17 702.996C2200.54 702.996 2175.23 695.448 2157.25 680.352C2139.27 665.034 2130.28 641.946 2130.28 611.088C2130.28 580.896 2139.05 558.03 2156.58 542.49C2174.12 526.95 2198.32 519.18 2229.18 519.18ZM2231.84 561.471C2210.97 561.471 2199.32 571.35 2196.88 591.108H2261.48C2261.48 582.006 2258.82 574.791 2253.49 569.463C2248.38 564.135 2241.17 561.471 2231.84 561.471ZM2481.59 519.18C2502.01 519.18 2517.33 524.841 2527.54 536.163C2537.76 547.485 2542.86 563.802 2542.86 585.114V699H2476.59V593.106C2476.59 585.558 2474.6 579.564 2470.6 575.124C2466.83 570.462 2461.39 568.131 2454.28 568.131C2446.07 568.131 2439.41 570.795 2434.3 576.123C2429.2 581.451 2426.64 588 2426.64 595.77V699H2360.38V523.176H2414.66L2418.99 549.816C2425.87 540.492 2434.86 533.055 2445.96 527.505C2457.28 521.955 2469.16 519.18 2481.59 519.18ZM2699.7 523.176V568.131H2662.41V635.064C2662.41 643.056 2663.74 648.939 2666.4 652.713C2669.07 656.265 2673.95 658.041 2681.05 658.041H2699.7V697.002C2694.37 698.778 2687.49 700.221 2679.06 701.331C2670.62 702.441 2663.29 702.996 2657.08 702.996C2637.54 702.996 2622.45 699.444 2611.79 692.34C2601.36 685.236 2596.14 673.137 2596.14 656.043V568.131H2571.5V523.176H2598.8L2613.12 469.896H2662.41V523.176H2699.7ZM2732.78 502.53V457.575H2799.05V502.53H2732.78ZM2732.78 699V523.176H2799.05V699H2732.78ZM2963.89 523.176H3041.14L2976.21 594.105L3042.81 699H2967.55L2930.59 638.727L2907.61 661.038V699H2841.34V457.242H2907.61V590.442L2963.89 523.176Z" fill="white"/>
</g>
<defs>
<clipPath id="clip0_1_10">
<rect width="3321" height="1219" fill="white"/>
</clipPath>
</defs>
</svg>
