<svg width="4344" height="768" viewBox="0 0 4344 768" fill="none" xmlns="http://www.w3.org/2000/svg">
<g clip-path="url(#clip0_2_2)">
<path d="M976.372 444.984L584.296 52.9079C574.924 43.5359 559.732 43.5359 550.36 52.9079L499.288 103.98C445.864 157.404 445.864 244.02 499.288 297.444L899.848 698.004C904.54 702.696 912.136 702.696 916.816 698.004L976.372 638.448C1029.8 585.024 1029.8 498.408 976.372 444.984Z" fill="white"/>
<path d="M617.44 662.904V552.132C617.44 538.872 606.7 528.132 593.44 528.132H387.928C354.796 528.132 327.928 555 327.928 588.132V710.904C327.928 717.528 333.304 722.904 339.928 722.904H557.44C590.572 722.904 617.44 696.048 617.44 662.904Z" fill="white"/>
<path d="M1075.53 179.532V68.76C1075.53 55.5 1064.79 44.76 1051.53 44.76H940.756C907.624 44.76 880.756 71.628 880.756 104.76V227.532C880.756 234.156 886.132 239.532 892.756 239.532H1015.53C1048.67 239.532 1075.53 212.676 1075.53 179.532Z" fill="white"/>
<path d="M36.472 586.44V69.1321C36.472 55.8721 47.212 45.1321 60.472 45.1321H132.7C208.252 45.1321 269.5 106.38 269.5 181.932V711.24C269.5 717.864 264.124 723.24 257.5 723.24H173.272C97.72 723.24 36.472 661.992 36.472 586.44Z" fill="white"/>
<path d="M1532.4 328C1571.63 328 1601.88 340.833 1623.15 366.5C1644.42 392.167 1655.05 430.117 1655.05 480.35C1655.05 530.217 1644.42 567.983 1623.15 593.65C1601.88 618.95 1571.63 631.6 1532.4 631.6C1498.67 631.6 1471.53 620.6 1451 598.6V733.35H1341.55V334.6H1430.65L1440 375.85C1461.27 343.95 1492.07 328 1532.4 328ZM1498.3 408.85C1482.17 408.85 1470.07 414.533 1462 425.9C1453.93 437.267 1449.9 452.117 1449.9 470.45V488.6C1449.9 506.933 1453.93 521.967 1462 533.7C1470.07 545.067 1482.17 550.75 1498.3 550.75C1529.83 550.75 1545.6 531.867 1545.6 494.1V464.95C1545.6 427.55 1529.83 408.85 1498.3 408.85ZM1851.4 328C1895.76 328 1931.88 335.517 1959.75 350.55C1987.61 365.217 2001.55 389.233 2001.55 422.6V535.9C2001.55 542.133 2003.01 547.267 2005.95 551.3C2008.88 555.333 2013.28 557.35 2019.15 557.35H2038.95V620.6C2037.85 621.333 2034.91 622.617 2030.15 624.45C2025.75 625.917 2019.33 627.383 2010.9 628.85C2002.46 630.683 1992.75 631.6 1981.75 631.6C1960.48 631.6 1942.88 628.483 1928.95 622.25C1915.38 615.65 1906.03 606.667 1900.9 595.3C1886.96 606.3 1871.38 615.1 1854.15 621.7C1836.91 628.3 1816.75 631.6 1793.65 631.6C1725.45 631.6 1691.35 604.467 1691.35 550.2C1691.35 521.967 1698.86 500.517 1713.9 485.85C1729.3 470.817 1751.3 460.55 1779.9 455.05C1808.5 449.55 1845.9 446.8 1892.1 446.8V432.5C1892.1 421.133 1888.06 412.517 1880 406.65C1872.3 400.783 1862.21 397.85 1849.75 397.85C1838.38 397.85 1828.48 399.867 1820.05 403.9C1811.98 407.933 1807.95 414.35 1807.95 423.15V425.35H1700.15C1699.78 423.517 1699.6 420.95 1699.6 417.65C1699.6 390.15 1712.61 368.333 1738.65 352.2C1765.05 336.067 1802.63 328 1851.4 328ZM1892.1 498.5C1860.93 498.5 1837.83 501.983 1822.8 508.95C1808.13 515.55 1800.8 524.533 1800.8 535.9C1800.8 554.233 1813.26 563.4 1838.2 563.4C1852.5 563.4 1864.96 559.55 1875.6 551.85C1886.6 544.15 1892.1 534.617 1892.1 523.25V498.5ZM2271.46 328C2310.7 328 2340.95 340.833 2362.21 366.5C2383.48 392.167 2394.11 430.117 2394.11 480.35C2394.11 530.217 2383.48 567.983 2362.21 593.65C2340.95 618.95 2310.7 631.6 2271.46 631.6C2237.73 631.6 2210.6 620.6 2190.06 598.6V733.35H2080.61V334.6H2169.71L2179.06 375.85C2200.33 343.95 2231.13 328 2271.46 328ZM2237.36 408.85C2221.23 408.85 2209.13 414.533 2201.06 425.9C2193 437.267 2188.96 452.117 2188.96 470.45V488.6C2188.96 506.933 2193 521.967 2201.06 533.7C2209.13 545.067 2221.23 550.75 2237.36 550.75C2268.9 550.75 2284.66 531.867 2284.66 494.1V464.95C2284.66 427.55 2268.9 408.85 2237.36 408.85ZM2597.06 328C2650.22 328 2690.74 340.467 2718.61 365.4C2746.84 390.333 2760.96 428.467 2760.96 479.8V498.5H2543.16C2543.16 519.4 2547.74 535.167 2556.91 545.8C2566.44 556.433 2581.29 561.75 2601.46 561.75C2619.79 561.75 2633.17 557.9 2641.61 550.2C2650.41 542.5 2654.81 532.233 2654.81 519.4H2760.96C2760.96 554.6 2747.57 582.1 2720.81 601.9C2694.04 621.7 2654.99 631.6 2603.66 631.6C2549.76 631.6 2507.96 619.133 2478.26 594.2C2448.56 568.9 2433.71 530.767 2433.71 479.8C2433.71 429.933 2448.19 392.167 2477.16 366.5C2506.12 340.833 2546.09 328 2597.06 328ZM2601.46 397.85C2566.99 397.85 2547.74 414.167 2543.71 446.8H2650.41C2650.41 431.767 2646.01 419.85 2637.21 411.05C2628.77 402.25 2616.86 397.85 2601.46 397.85ZM2990.3 327.45C2998.74 327.45 3006.25 328.55 3012.85 330.75C3019.45 332.583 3022.75 333.683 3022.75 334.05V425.9H2987.55C2964.82 425.9 2948.32 431.767 2938.05 443.5C2928.15 455.233 2923.2 472.65 2923.2 495.75V625H2813.75V334.6H2903.4L2910.55 378.6C2917.15 361.733 2927.6 349.083 2941.9 340.65C2956.2 331.85 2972.34 327.45 2990.3 327.45ZM3080.25 625V226.25H3189.7V625H3080.25ZM3409.7 328C3462.87 328 3503.39 340.467 3531.25 365.4C3559.49 390.333 3573.6 428.467 3573.6 479.8V498.5H3355.8C3355.8 519.4 3360.39 535.167 3369.55 545.8C3379.09 556.433 3393.94 561.75 3414.1 561.75C3432.44 561.75 3445.82 557.9 3454.25 550.2C3463.05 542.5 3467.45 532.233 3467.45 519.4H3573.6C3573.6 554.6 3560.22 582.1 3533.45 601.9C3506.69 621.7 3467.64 631.6 3416.3 631.6C3362.4 631.6 3320.6 619.133 3290.9 594.2C3261.2 568.9 3246.35 530.767 3246.35 479.8C3246.35 429.933 3260.84 392.167 3289.8 366.5C3318.77 340.833 3358.74 328 3409.7 328ZM3414.1 397.85C3379.64 397.85 3360.39 414.167 3356.35 446.8H3463.05C3463.05 431.767 3458.65 419.85 3449.85 411.05C3441.42 402.25 3429.5 397.85 3414.1 397.85ZM3764.45 328C3803.32 328 3836.13 335.7 3862.9 351.1C3890.03 366.133 3903.6 389.6 3903.6 421.5H3801.85C3801.85 410.867 3797.08 403.35 3787.55 398.95C3780.95 395.283 3772.7 393.45 3762.8 393.45C3736.4 393.45 3723.2 399.683 3723.2 412.15C3723.2 419.117 3727.78 424.067 3736.95 427C3746.12 429.933 3761.15 433.05 3782.05 436.35C3807.72 440.017 3829.17 444.417 3846.4 449.55C3863.63 454.317 3878.67 463.117 3891.5 475.95C3904.33 488.417 3910.75 506.017 3910.75 528.75C3910.75 565.783 3896.82 592.183 3868.95 607.95C3841.45 623.717 3805.33 631.6 3760.6 631.6C3734.93 631.6 3710.73 628.117 3688 621.15C3665.27 613.817 3646.75 602.633 3632.45 587.6C3618.15 572.567 3611 553.5 3611 530.4H3712.75V532.6C3713.12 545.067 3718.25 553.867 3728.15 559C3738.42 563.767 3749.23 566.15 3760.6 566.15C3791.03 566.15 3806.25 559 3806.25 544.7C3806.25 537.367 3801.48 532.05 3791.95 528.75C3782.42 525.45 3766.83 521.967 3745.2 518.3C3719.17 513.9 3697.72 509.133 3680.85 504C3664.35 498.867 3649.87 490.25 3637.4 478.15C3624.93 465.683 3618.7 448.45 3618.7 426.45C3618.7 390.883 3632.08 365.583 3658.85 350.55C3685.98 335.517 3721.18 328 3764.45 328ZM4100.68 328C4139.55 328 4172.36 335.7 4199.13 351.1C4226.26 366.133 4239.83 389.6 4239.83 421.5H4138.08C4138.08 410.867 4133.31 403.35 4123.78 398.95C4117.18 395.283 4108.93 393.45 4099.03 393.45C4072.63 393.45 4059.43 399.683 4059.43 412.15C4059.43 419.117 4064.01 424.067 4073.18 427C4082.35 429.933 4097.38 433.05 4118.28 436.35C4143.95 440.017 4165.4 444.417 4182.63 449.55C4199.86 454.317 4214.9 463.117 4227.73 475.95C4240.56 488.417 4246.98 506.017 4246.98 528.75C4246.98 565.783 4233.05 592.183 4205.18 607.95C4177.68 623.717 4141.56 631.6 4096.83 631.6C4071.16 631.6 4046.96 628.117 4024.23 621.15C4001.5 613.817 3982.98 602.633 3968.68 587.6C3954.38 572.567 3947.23 553.5 3947.23 530.4H4048.98V532.6C4049.35 545.067 4054.48 553.867 4064.38 559C4074.65 563.767 4085.46 566.15 4096.83 566.15C4127.26 566.15 4142.48 559 4142.48 544.7C4142.48 537.367 4137.71 532.05 4128.18 528.75C4118.65 525.45 4103.06 521.967 4081.43 518.3C4055.4 513.9 4033.95 509.133 4017.08 504C4000.58 498.867 3986.1 490.25 3973.63 478.15C3961.16 465.683 3954.93 448.45 3954.93 426.45C3954.93 390.883 3968.31 365.583 3995.08 350.55C4022.21 335.517 4057.41 328 4100.68 328Z" fill="white"/>
</g>
<defs>
<clipPath id="clip0_2_2">
<rect width="4344" height="768" fill="white"/>
</clipPath>
</defs>
</svg>
