<svg width="2545" height="1219" viewBox="0 0 2545 1219" fill="none" xmlns="http://www.w3.org/2000/svg">
<g clip-path="url(#clip0_1_10)">
<path d="M1049.31 659.82L722.58 333.09C714.77 325.28 702.11 325.28 694.3 333.09L651.74 375.65C607.22 420.17 607.22 492.35 651.74 536.87L985.54 870.67C989.45 874.58 995.78 874.58 999.68 870.67L1049.31 821.04C1093.83 776.52 1093.83 704.34 1049.31 659.82Z" fill="white"/>
<path d="M750.2 841.42V749.11C750.2 738.06 741.25 729.11 730.2 729.11H558.94C531.33 729.11 508.94 751.5 508.94 779.11V881.42C508.94 886.94 513.42 891.42 518.94 891.42H700.2C727.81 891.42 750.2 869.04 750.2 841.42Z" fill="white"/>
<path d="M1131.94 438.61V346.3C1131.94 335.25 1122.99 326.3 1111.94 326.3H1019.63C992.02 326.3 969.63 348.69 969.63 376.3V478.61C969.63 484.13 974.11 488.61 979.63 488.61H1081.94C1109.56 488.61 1131.94 466.23 1131.94 438.61Z" fill="white"/>
<path d="M266.06 777.7V346.61C266.06 335.56 275.01 326.61 286.06 326.61H346.25C409.21 326.61 460.25 377.65 460.25 440.61V881.7C460.25 887.22 455.77 891.7 450.25 891.7H380.06C317.1 891.7 266.06 840.66 266.06 777.7Z" fill="white"/>
<path d="M1521.78 490.209C1521.78 503.751 1518.34 514.185 1511.46 521.511C1504.8 528.837 1494.7 534.276 1481.16 537.828C1487.59 542.712 1492.59 548.484 1496.14 555.144C1499.92 561.582 1501.8 568.464 1501.8 575.79C1501.8 594.438 1494.7 608.535 1480.49 618.081C1466.5 627.627 1448.97 632.4 1427.88 632.4H1402.57C1388.58 632.4 1381.59 635.619 1381.59 642.057C1381.59 645.165 1383.14 647.718 1386.25 649.716C1389.36 651.492 1394.8 652.38 1402.57 652.38H1462.51C1482.04 652.38 1496.81 657.486 1506.8 667.698C1516.79 677.91 1521.78 691.563 1521.78 708.657C1521.78 721.311 1518.45 732.189 1511.79 741.291C1505.13 750.393 1496.14 757.275 1484.82 761.937C1473.5 766.599 1461.18 768.93 1447.86 768.93H1349.95C1341.96 768.93 1334.53 767.043 1327.64 763.269C1320.98 759.495 1315.66 754.278 1311.66 747.618C1307.66 741.18 1305.67 733.965 1305.67 725.973C1305.67 717.315 1308.33 709.434 1313.66 702.33C1318.99 695.448 1325.65 690.231 1333.64 686.679C1328.31 682.905 1324.09 678.354 1320.98 673.026C1317.88 667.698 1316.32 661.926 1316.32 655.71C1316.32 647.052 1319.54 639.282 1325.98 632.4C1332.42 625.296 1340.41 620.523 1349.95 618.081C1341.3 612.531 1334.41 606.204 1329.31 599.1C1324.2 591.774 1321.65 584.115 1321.65 576.123C1321.65 555.699 1329.86 541.158 1346.29 532.5C1362.94 523.62 1384.92 519.18 1412.23 519.18C1424.21 519.18 1433.87 519.846 1441.2 521.178C1452.07 514.296 1459.07 508.08 1462.18 502.53C1465.51 496.758 1467.17 492.651 1467.17 490.209H1521.78ZM1411.56 553.812C1404.23 553.812 1398.24 555.699 1393.58 559.473C1388.92 563.247 1386.58 568.686 1386.58 575.79C1386.58 583.116 1388.69 588.666 1392.91 592.44C1397.35 595.992 1403.57 597.768 1411.56 597.768C1419.55 597.768 1425.77 595.992 1430.21 592.44C1434.87 588.666 1437.2 583.116 1437.2 575.79C1437.2 568.464 1434.87 563.025 1430.21 559.473C1425.77 555.699 1419.55 553.812 1411.56 553.812ZM1385.92 699C1380.81 699 1376.59 700.332 1373.26 702.996C1370.16 705.882 1368.6 709.878 1368.6 714.984C1368.6 720.09 1370.27 724.197 1373.6 727.305C1376.93 730.413 1381.03 731.967 1385.92 731.967H1437.87C1442.75 731.967 1446.86 730.413 1450.19 727.305C1453.74 724.419 1455.52 720.423 1455.52 715.317C1455.52 710.211 1453.85 706.215 1450.52 703.329C1447.19 700.443 1442.97 699 1437.87 699H1385.92ZM1548.42 502.53V457.575H1614.69V502.53H1548.42ZM1548.42 699V523.176H1614.69V699H1548.42ZM1774.2 523.176V568.131H1736.9V635.064C1736.9 643.056 1738.23 648.939 1740.9 652.713C1743.56 656.265 1748.44 658.041 1755.55 658.041H1774.2V697.002C1768.87 698.778 1761.99 700.221 1753.55 701.331C1745.11 702.441 1737.79 702.996 1731.57 702.996C1712.04 702.996 1696.94 699.444 1686.28 692.34C1675.85 685.236 1670.63 673.137 1670.63 656.043V568.131H1645.99V523.176H1673.3L1687.62 469.896H1736.9V523.176H1774.2ZM1807.27 699V457.575H1873.54V699H1807.27ZM2002.75 519.18C2029.61 519.18 2051.48 523.731 2068.35 532.833C2085.22 541.713 2093.66 556.254 2093.66 576.456V645.054C2093.66 648.828 2094.55 651.936 2096.32 654.378C2098.1 656.82 2100.76 658.041 2104.31 658.041H2116.3V696.336C2115.64 696.78 2113.86 697.557 2110.97 698.667C2108.31 699.555 2104.42 700.443 2099.32 701.331C2094.21 702.441 2088.33 702.996 2081.67 702.996C2068.79 702.996 2058.14 701.109 2049.7 697.335C2041.49 693.339 2035.83 687.9 2032.72 681.018C2024.28 687.678 2014.85 693.006 2004.41 697.002C1993.98 700.998 1981.77 702.996 1967.78 702.996C1926.49 702.996 1905.85 686.568 1905.85 653.712C1905.85 636.618 1910.4 623.631 1919.5 614.751C1928.82 605.649 1942.14 599.433 1959.46 596.103C1976.77 592.773 1999.42 591.108 2027.39 591.108V582.45C2027.39 575.568 2024.95 570.351 2020.06 566.799C2015.4 563.247 2009.3 561.471 2001.75 561.471C1994.87 561.471 1988.87 562.692 1983.77 565.134C1978.88 567.576 1976.44 571.461 1976.44 576.789V578.121H1911.17C1910.95 577.011 1910.84 575.457 1910.84 573.459C1910.84 556.809 1918.72 543.6 1934.48 533.832C1950.47 524.064 1973.22 519.18 2002.75 519.18ZM2027.39 622.41C2008.52 622.41 1994.53 624.519 1985.43 628.737C1976.55 632.733 1972.11 638.172 1972.11 645.054C1972.11 656.154 1979.66 661.704 1994.76 661.704C2003.41 661.704 2010.96 659.373 2017.4 654.711C2024.06 650.049 2027.39 644.277 2027.39 637.395V622.41ZM2207.8 539.493C2220.45 525.951 2236.88 519.18 2257.08 519.18C2280.83 519.18 2299.15 526.95 2312.02 542.49C2324.9 557.808 2331.34 580.563 2331.34 610.755C2331.34 641.169 2324.9 664.146 2312.02 679.686C2299.15 695.226 2280.83 702.996 2257.08 702.996C2232.66 702.996 2214.01 693.339 2201.14 674.025L2195.47 699H2141.53V457.575H2207.8V539.493ZM2236.43 568.131C2226.67 568.131 2219.34 571.683 2214.46 578.787C2209.57 585.669 2207.13 594.66 2207.13 605.76V616.749C2207.13 627.849 2209.57 636.84 2214.46 643.722C2219.34 650.604 2226.67 654.045 2236.43 654.045C2255.53 654.045 2265.07 642.723 2265.07 620.079V602.43C2265.07 579.564 2255.53 568.131 2236.43 568.131Z" fill="white"/>
</g>
<defs>
<clipPath id="clip0_1_10">
<rect width="2545" height="1219" fill="white"/>
</clipPath>
</defs>
</svg>
