<svg width="4309" height="768" viewBox="0 0 4309 768" fill="none" xmlns="http://www.w3.org/2000/svg">
<g clip-path="url(#clip0_1_10)">
<path d="M976.372 444.984L584.296 52.908C574.924 43.536 559.732 43.536 550.36 52.908L499.288 103.98C445.864 157.404 445.864 244.02 499.288 297.444L899.848 698.004C904.54 702.696 912.136 702.696 916.816 698.004L976.372 638.448C1029.8 585.024 1029.8 498.408 976.372 444.984Z" fill="white"/>
<path d="M617.44 662.904V552.132C617.44 538.872 606.7 528.132 593.44 528.132H387.928C354.796 528.132 327.928 555 327.928 588.132V710.904C327.928 717.528 333.304 722.904 339.928 722.904H557.44C590.572 722.904 617.44 696.048 617.44 662.904Z" fill="white"/>
<path d="M1075.53 179.532V68.76C1075.53 55.5 1064.79 44.76 1051.53 44.76H940.756C907.624 44.76 880.756 71.628 880.756 104.76V227.532C880.756 234.156 886.132 239.532 892.756 239.532H1015.53C1048.67 239.532 1075.53 212.676 1075.53 179.532Z" fill="white"/>
<path d="M36.472 586.44V69.132C36.472 55.872 47.212 45.132 60.472 45.132H132.7C208.252 45.132 269.5 106.38 269.5 181.932V711.24C269.5 717.864 264.124 723.24 257.5 723.24H173.272C97.72 723.24 36.472 661.992 36.472 586.44Z" fill="white"/>
<path d="M1484.55 328C1528.92 328 1565.03 335.517 1592.9 350.55C1620.77 365.217 1634.7 389.233 1634.7 422.6V535.9C1634.7 542.133 1636.17 547.267 1639.1 551.3C1642.03 555.333 1646.43 557.35 1652.3 557.35H1672.1V620.6C1671 621.333 1668.07 622.617 1663.3 624.45C1658.9 625.917 1652.48 627.383 1644.05 628.85C1635.62 630.683 1625.9 631.6 1614.9 631.6C1593.63 631.6 1576.03 628.483 1562.1 622.25C1548.53 615.65 1539.18 606.667 1534.05 595.3C1520.12 606.3 1504.53 615.1 1487.3 621.7C1470.07 628.3 1449.9 631.6 1426.8 631.6C1358.6 631.6 1324.5 604.467 1324.5 550.2C1324.5 521.967 1332.02 500.517 1347.05 485.85C1362.45 470.817 1384.45 460.55 1413.05 455.05C1441.65 449.55 1479.05 446.8 1525.25 446.8V432.5C1525.25 421.133 1521.22 412.517 1513.15 406.65C1505.45 400.783 1495.37 397.85 1482.9 397.85C1471.53 397.85 1461.63 399.867 1453.2 403.9C1445.13 407.933 1441.1 414.35 1441.1 423.15V425.35H1333.3C1332.93 423.517 1332.75 420.95 1332.75 417.65C1332.75 390.15 1345.77 368.333 1371.8 352.2C1398.2 336.067 1435.78 328 1484.55 328ZM1525.25 498.5C1494.08 498.5 1470.98 501.983 1455.95 508.95C1441.28 515.55 1433.95 524.533 1433.95 535.9C1433.95 554.233 1446.42 563.4 1471.35 563.4C1485.65 563.4 1498.12 559.55 1508.75 551.85C1519.75 544.15 1525.25 534.617 1525.25 523.25V498.5ZM1918.5 625L1911.35 581C1899.98 596.767 1884.95 609.233 1866.25 618.4C1847.91 627.2 1828.48 631.6 1807.95 631.6C1774.21 631.6 1748.91 622.25 1732.05 603.55C1715.18 584.85 1706.75 557.9 1706.75 522.7V334.6H1816.2V509.5C1816.2 521.967 1819.31 532.05 1825.55 539.75C1832.15 547.083 1841.31 550.75 1853.05 550.75C1866.61 550.75 1877.61 546.35 1886.05 537.55C1894.48 528.75 1898.7 517.933 1898.7 505.1V334.6H2008.15V625H1918.5ZM2268.29 334.6V408.85H2206.69V519.4C2206.69 532.6 2208.89 542.317 2213.29 548.55C2217.69 554.417 2225.76 557.35 2237.49 557.35H2268.29V621.7C2259.49 624.633 2248.12 627.017 2234.19 628.85C2220.26 630.683 2208.16 631.6 2197.89 631.6C2165.62 631.6 2140.69 625.733 2123.09 614C2105.86 602.267 2097.24 582.283 2097.24 554.05V408.85H2056.54V334.6H2101.64L2125.29 246.6H2206.69V334.6H2268.29ZM2428.53 364.85C2440.26 353.117 2454.01 344.133 2469.78 337.9C2485.54 331.3 2502.04 328 2519.28 328C2553.01 328 2578.31 337.35 2595.18 356.05C2612.04 374.75 2620.48 401.7 2620.48 436.9V625H2511.03V450.1C2511.03 437.633 2507.73 427.733 2501.13 420.4C2494.89 412.7 2485.91 408.85 2474.18 408.85C2460.61 408.85 2449.61 413.25 2441.18 422.05C2432.74 430.85 2428.53 441.667 2428.53 454.5V625H2319.08V226.25H2428.53V364.85ZM2836.07 328C2889.24 328 2929.76 340.467 2957.62 365.4C2985.86 390.333 2999.97 428.467 2999.97 479.8V498.5H2782.17C2782.17 519.4 2786.76 535.167 2795.92 545.8C2805.46 556.433 2820.31 561.75 2840.47 561.75C2858.81 561.75 2872.19 557.9 2880.62 550.2C2889.42 542.5 2893.82 532.233 2893.82 519.4H2999.97C2999.97 554.6 2986.59 582.1 2959.82 601.9C2933.06 621.7 2894.01 631.6 2842.67 631.6C2788.77 631.6 2746.97 619.133 2717.27 594.2C2687.57 568.9 2672.72 530.767 2672.72 479.8C2672.72 429.933 2687.21 392.167 2716.17 366.5C2745.14 340.833 2785.11 328 2836.07 328ZM2840.47 397.85C2806.01 397.85 2786.76 414.167 2782.72 446.8H2889.42C2889.42 431.767 2885.02 419.85 2876.22 411.05C2867.79 402.25 2855.87 397.85 2840.47 397.85ZM3252.97 328C3286.7 328 3312 337.35 3328.87 356.05C3345.73 374.75 3354.17 401.7 3354.17 436.9V625H3244.72V450.1C3244.72 437.633 3241.42 427.733 3234.82 420.4C3228.58 412.7 3219.6 408.85 3207.87 408.85C3194.3 408.85 3183.3 413.25 3174.87 422.05C3166.43 430.85 3162.22 441.667 3162.22 454.5V625H3052.77V334.6H3142.42L3149.57 378.6C3160.93 363.2 3175.78 350.917 3194.12 341.75C3212.82 332.583 3232.43 328 3252.97 328ZM3613.21 334.6V408.85H3551.61V519.4C3551.61 532.6 3553.81 542.317 3558.21 548.55C3562.61 554.417 3570.68 557.35 3582.41 557.35H3613.21V621.7C3604.41 624.633 3593.05 627.017 3579.11 628.85C3565.18 630.683 3553.08 631.6 3542.81 631.6C3510.55 631.6 3485.61 625.733 3468.01 614C3450.78 602.267 3442.16 582.283 3442.16 554.05V408.85H3401.46V334.6H3446.56L3470.21 246.6H3551.61V334.6H3613.21ZM3667.85 300.5V226.25H3777.3V300.5H3667.85ZM3667.85 625V334.6H3777.3V625H3667.85ZM4049.55 334.6H4177.15L4069.9 451.75L4179.9 625H4055.6L3994.55 525.45L3956.6 562.3V625H3847.15V225.7H3956.6V445.7L4049.55 334.6Z" fill="white"/>
</g>
<defs>
<clipPath id="clip0_1_10">
<rect width="4309" height="768" fill="white"/>
</clipPath>
</defs>
</svg>
